<?xml version="1.0" encoding="utf-8"?>
<!-- Generator: Adobe Illustrator 19.2.0, SVG Export Plug-In . SVG Version: 6.00 Build 0)  -->
<svg version="1.1" id="Layer_1" xmlns="http://www.w3.org/2000/svg" xmlns:xlink="http://www.w3.org/1999/xlink" x="0px" y="0px"
	 viewBox="0 0 134 38" style="enable-background:new 0 0 134 38;" xml:space="preserve">
<style type="text/css">
	.st0{fill:#FFFFFF;}
	.st1{opacity:0.5;}
</style>
<g>
	<g transform="translate(-227 -44)">
		<g>
			<g>
				<path id="sy2ma" class="st0" d="M274.4,72.5V53.7h7c1.5,0,2.9,0.2,4.1,0.7s2.1,1.2,2.9,2c0.8,0.9,1.4,1.9,1.8,3
					c0.4,1.2,0.6,2.4,0.6,3.6c0,1.4-0.2,2.7-0.7,3.9s-1.1,2.1-1.9,3c-0.8,0.8-1.8,1.5-3,1.9s-2.4,0.7-3.8,0.7L274.4,72.5z
					 M286.4,63.1c0-0.8-0.1-1.6-0.3-2.3c-0.2-0.6-0.5-1.2-1-1.8c-0.4-0.5-1-0.9-1.6-1.1c-0.6-0.3-1.3-0.4-2.1-0.4h-2.7v11.2h2.7
					c0.8,0,1.5-0.1,2.1-0.4c0.6-0.3,1.1-0.7,1.5-1.2c0.4-0.5,0.7-1.1,1-1.8C286.3,64.6,286.4,63.8,286.4,63.1L286.4,63.1z"/>
			</g>
		</g>
		<g>
			<g>
				<path id="sy2mb" class="st0" d="M299.6,72.5c-1.1,0-2-0.2-2.9-0.5c-0.9-0.3-1.6-0.8-2.2-1.4c-0.6-0.6-1.1-1.3-1.4-2.1
					c-0.3-0.8-0.5-1.6-0.5-2.5c0-0.9,0.2-1.8,0.5-2.6c0.3-0.8,0.8-1.5,1.3-2.2c0.6-0.6,1.3-1.1,2.2-1.5c0.9-0.4,1.8-0.5,2.9-0.5
					c1.1,0,2.1,0.2,2.9,0.5c0.8,0.4,1.6,0.8,2.2,1.5c0.6,0.6,1,1.3,1.3,2.1c0.3,0.8,0.5,1.6,0.5,2.5c0,0.2,0,0.4,0,0.7
					c0,0.2,0,0.4-0.1,0.6h-9.5c0.1,0.9,0.4,1.5,0.9,2c0.6,0.4,1.2,0.7,1.9,0.7c0.6,0,1.1-0.1,1.7-0.4c0.5-0.3,0.9-0.7,1.1-1.1
					l3.3,0.9c-0.5,1-1.3,1.8-2.3,2.5C302.4,72.2,301.1,72.5,299.6,72.5L299.6,72.5z M302.4,64.6c-0.1-0.8-0.4-1.5-0.9-1.9
					c-0.5-0.5-1.1-0.7-1.9-0.7c-0.8,0-1.4,0.2-1.9,0.7c-0.5,0.5-0.8,1.1-0.9,1.9H302.4z"/>
			</g>
		</g>
		<g>
			<g>
				<path id="sy2mc" class="st0" d="M314.4,72.5c-1.1,0-2.2-0.2-3.2-0.5c-1.1-0.3-2-0.9-2.7-1.5l1.4-2.4c0.8,0.5,1.5,1,2.3,1.2
					c0.7,0.3,1.5,0.4,2.1,0.4c0.5,0,0.9-0.1,1.2-0.3c0.3-0.2,0.4-0.4,0.4-0.8s-0.2-0.6-0.5-0.8c-0.4-0.2-1-0.4-1.8-0.6
					c-0.7-0.2-1.5-0.4-2.2-0.7c-0.6-0.2-1.1-0.5-1.5-0.8c-0.4-0.3-0.6-0.6-0.8-1c-0.2-0.4-0.2-0.8-0.2-1.3c0-0.7,0.1-1.2,0.4-1.8
					c0.3-0.5,0.6-1,1.1-1.4c0.5-0.4,1-0.7,1.6-0.9c0.7-0.2,1.3-0.3,2-0.3c1,0,1.9,0.1,2.7,0.4c0.8,0.3,1.7,0.7,2.4,1.4l-1.5,2.3
					c-0.7-0.5-1.4-0.9-2-1.1c-0.5-0.2-1.1-0.3-1.7-0.3c-0.4,0-0.8,0.1-1.1,0.3c-0.3,0.2-0.4,0.4-0.4,0.8c0,0.4,0.2,0.6,0.5,0.8
					c0.3,0.2,0.9,0.4,1.8,0.6c0.9,0.2,1.7,0.5,2.3,0.7c0.6,0.2,1.1,0.5,1.5,0.8s0.7,0.6,0.9,1c0.2,0.4,0.3,0.9,0.3,1.4
					c0,1.3-0.5,2.3-1.4,3C317.3,72.1,316,72.5,314.4,72.5"/>
			</g>
		</g>
		<g>
			<g>
				<path id="sy2md" class="st0" d="M330.5,72.5l-3.5-5.3l-1.4,1.5v3.9h-4.1V53.7h4.1v11l4.5-5.5h4.3l-4.8,5.7l5.2,7.6L330.5,72.5z"
					/>
			</g>
		</g>
		<g>
			<g>
				<path id="sy2me" class="st0" d="M338.5,72.5V62.2h-1.7v-3.1h1.7v0c0-0.8,0.1-1.6,0.3-2.3c0.2-0.7,0.5-1.2,0.9-1.7
					c0.4-0.5,0.9-0.8,1.5-1.1c0.6-0.3,1.2-0.4,1.9-0.4c1.1,0,2.2,0.3,3.5,0.8l-0.7,3c-0.3-0.1-0.6-0.2-0.9-0.3
					c-0.3-0.1-0.6-0.1-0.9-0.1c-1,0-1.5,0.6-1.5,1.9v0.1h3.1v3.1h-3.1v10.3H338.5z"/>
			</g>
		</g>
		<g>
			<g>
				<path id="sy2mf" class="st0" d="M349,74.1c0.3,0.1,0.6,0.2,0.9,0.2c0.3,0.1,0.5,0.1,0.8,0.1c0.5,0,0.8-0.2,1.1-0.5
					c0.3-0.3,0.6-0.5,0.8-1.5l-5.1-13.3h4.1l3,9.6l2.6-9.6h3.7l-5,15.1c-0.3,1-1,2-1.9,2.6c-0.9,0.7-1.9,1-3.2,1c-0.3,0-0.7,0-1-0.1
					c-0.4-0.1-0.7-0.2-1-0.3L349,74.1z"/>
			</g>
		</g>
		<g class="st1">
			<g>
				<path id="sy2mg" class="st0" d="M245.8,44.2h-17.7c-0.6,0.1-1.1,0.6-1.2,1.2c0.6,15,13,27,28.2,27c2.6,0,5.1-0.3,7.5-1
					c1.3-2.6,2-5.5,2-8.4C264.7,52.7,256.2,44.2,245.8,44.2"/>
			</g>
		</g>
		<g class="st1">
			<g>
				<path id="sy2mh" class="st0" d="M262.7,54.7c-2.4-0.7-5-1-7.5-1c-15.1,0-27.5,11.9-28.2,26.9c0,0.7,0.5,1.2,1.2,1.3h17.7
					c10.4,0,18.8-8.4,18.8-18.8C264.7,60.1,264,57.2,262.7,54.7"/>
			</g>
		</g>
		<g class="st1">
			<g>
				<path id="sy2mi" class="st0" d="M251.9,67c-10.5,0-19.7,5.8-24.5,14.4c0.2,0.3,0.5,0.4,0.9,0.5h17.6c8.1,0,15-5.1,17.7-12.3
					C259.9,67.9,255.9,67,251.9,67"/>
			</g>
		</g>
		<g class="st1">
			<g>
				<path id="sy2mj" class="st0" d="M245.8,44.2h-17.7c-0.3,0-0.7,0.2-0.9,0.5c4.8,8.6,14,14.5,24.6,14.5c4.2,0,8.1-0.9,11.7-2.5
					C260.9,49.4,254,44.2,245.8,44.2"/>
			</g>
		</g>
		<g>
			<g>
				<path id="sy2mk" class="st0" d="M264.7,62.4l0-0.4l0-0.2c0-0.1,0-0.2,0-0.3c0-0.4-0.1-0.7-0.1-1.1l0-0.1c-0.1-0.5-0.2-1-0.3-1.5
					l0-0.1c0-0.1-0.1-0.3-0.1-0.4l0-0.1c-0.1-0.3-0.2-0.7-0.3-1c-0.3-0.8-0.6-1.7-1-2.4c-2.4-0.7-5-1-7.5-1c-8.4,0-15.9,3.6-21,9.4
					c5.2,5.8,12.7,9.4,21,9.4c2.6,0,5.1-0.3,7.5-1c0.1-0.2,0.2-0.3,0.2-0.5l0,0c0.4-0.8,0.7-1.6,0.9-2.5l0-0.1
					c0.1-0.3,0.2-0.6,0.3-0.9l0-0.1c0-0.2,0.1-0.3,0.1-0.5l0,0c0.1-0.3,0.1-0.7,0.2-1l0-0.1c0-0.1,0-0.3,0.1-0.4l0-0.2
					c0-0.4,0.1-0.7,0.1-1.1l0-0.4l0-0.2c0-0.4,0-0.7,0-1.1C264.7,62.5,264.7,62.4,264.7,62.4"/>
			</g>
		</g>
	</g>
</g>
</svg>
