<svg xmlns="http://www.w3.org/2000/svg" xmlns:xlink="http://www.w3.org/1999/xlink" width="38" height="38" viewBox="0 0 38 38"><defs><path id="hxsya" d="M800.01 779h-17.815a1.338 1.338 0 0 0-1.195 1.201c.64 14.907 13.135 26.799 28.458 26.799 2.612 0 5.142-.348 7.545-.995a18.329 18.329 0 0 0 1.997-8.338c0-10.31-8.502-18.667-18.99-18.667"/><path id="hxsyb" d="M817.03 790.004a28.94 28.94 0 0 0-7.573-1.004c-15.284 0-27.755 11.849-28.457 26.724a1.326 1.326 0 0 0 1.192 1.276h17.815c10.49 0 18.993-8.371 18.993-18.697 0-2.981-.71-5.799-1.97-8.3"/><path id="hxsyc" d="M805.401 802c-10.488 0-19.621 5.865-24.401 14.536.217.256.53.432.88.464h17.54c8.072 0 14.95-5.183 17.58-12.449A27.501 27.501 0 0 0 805.401 802"/><path id="hxsyd" d="M799.421 779h-17.545c-.35.039-.662.218-.876.478C785.77 788.14 794.905 794 805.397 794c4.14 0 8.07-.913 11.603-2.55-2.614-7.263-9.498-12.45-17.579-12.45"/><path id="hxsye" d="M817.986 797.775a20.323 20.323 0 0 0-.015-.364l-.012-.192a22.735 22.735 0 0 0-.024-.34l-.017-.193a20.375 20.375 0 0 0-.103-.903l-.019-.134a19.414 19.414 0 0 0-.292-1.564l-.016-.066c-.035-.15-.071-.299-.11-.447l-.02-.082a18.962 18.962 0 0 0-.121-.436l-.02-.069a19.346 19.346 0 0 0-.143-.468l-.008-.024a19.258 19.258 0 0 0-.988-2.47 27.096 27.096 0 0 0-7.387-1.023c-8.22 0-15.603 3.67-20.691 9.5 5.088 5.831 12.472 9.5 20.691 9.5 2.548 0 5.016-.355 7.36-1.015.078-.158.153-.318.226-.48l.004-.008c.364-.804.674-1.638.927-2.498l.02-.066a18.97 18.97 0 0 0 .25-.956l.022-.09c.036-.157.07-.315.103-.473l.009-.042c.07-.349.131-.7.183-1.056l.016-.12c.019-.132.036-.264.052-.397l.019-.173a21.044 21.044 0 0 0 .088-1.079c.007-.122.012-.244.016-.366.002-.056.005-.112.006-.169a20.03 20.03 0 0 0 0-1.069l-.006-.168"/></defs><g><g transform="translate(-781 -779)"><g><use fill="#70cbd8" xlink:href="#hxsya"/></g><g><use fill="#70cbd8" xlink:href="#hxsyb"/></g><g><use fill="#3eb4c0" xlink:href="#hxsyc"/></g><g><use fill="#3eb4c0" xlink:href="#hxsyd"/></g><g><use fill="#17aab1" xlink:href="#hxsye"/></g></g></g></svg>