<svg width="134" height="38" xmlns="http://www.w3.org/2000/svg">
 <style type="text/css">.st0{fill:#FFFFFF;}
	.st1{opacity:0.5;}</style>

 <g>
  <title>background</title>
  <rect fill="#3cbbd1" id="canvas_background" height="40" width="136" y="-1" x="-1"/>
 </g>
 <g>
  <title>Layer 1</title>
  <g id="svg_1">
   <g id="svg_2">
    <g id="svg_3">
     <g id="svg_4">
      <path fill="#2D6862" d="m47.4,28.5l0,-18.8l7,0c1.5,0 2.9,0.2 4.1,0.7s2.1,1.2 2.9,2c0.8,0.9 1.4,1.9 1.8,3c0.4,1.2 0.6,2.4 0.6,3.6c0,1.4 -0.2,2.7 -0.7,3.9s-1.1,2.1 -1.9,3c-0.8,0.8 -1.8,1.5 -3,1.9s-2.4,0.7 -3.8,0.7l-7,0zm12,-9.4c0,-0.8 -0.1,-1.6 -0.3,-2.3c-0.2,-0.6 -0.5,-1.2 -1,-1.8c-0.4,-0.5 -1,-0.9 -1.6,-1.1c-0.6,-0.3 -1.3,-0.4 -2.1,-0.4l-2.7,0l0,11.2l2.7,0c0.8,0 1.5,-0.1 2.1,-0.4c0.6,-0.3 1.1,-0.7 1.5,-1.2c0.4,-0.5 0.7,-1.1 1,-1.8c0.3,-0.7 0.4,-1.5 0.4,-2.2l0,0z" class="st0" id="sy2ma"/>
     </g>
    </g>
    <g id="svg_5">
     <g id="svg_6">
      <path fill="#2D6862" d="m72.6,28.5c-1.1,0 -2,-0.2 -2.9,-0.5c-0.9,-0.3 -1.6,-0.8 -2.2,-1.4c-0.6,-0.6 -1.1,-1.3 -1.4,-2.1c-0.3,-0.8 -0.5,-1.6 -0.5,-2.5c0,-0.9 0.2,-1.8 0.5,-2.6c0.3,-0.8 0.8,-1.5 1.3,-2.2c0.6,-0.6 1.3,-1.1 2.2,-1.5c0.9,-0.4 1.8,-0.5 2.9,-0.5c1.1,0 2.1,0.2 2.9,0.5c0.8,0.4 1.6,0.8 2.2,1.5c0.6,0.6 1,1.3 1.3,2.1c0.3,0.8 0.5,1.6 0.5,2.5c0,0.2 0,0.4 0,0.7c0,0.2 0,0.4 -0.1,0.6l-9.5,0c0.1,0.9 0.4,1.5 0.9,2c0.6,0.4 1.2,0.7 1.9,0.7c0.6,0 1.1,-0.1 1.7,-0.4c0.5,-0.3 0.9,-0.7 1.1,-1.1l3.3,0.9c-0.5,1 -1.3,1.8 -2.3,2.5c-1,0.5 -2.3,0.8 -3.8,0.8l0,0zm2.8,-7.9c-0.1,-0.8 -0.4,-1.5 -0.9,-1.9c-0.5,-0.5 -1.1,-0.7 -1.9,-0.7c-0.8,0 -1.4,0.2 -1.9,0.7c-0.5,0.5 -0.8,1.1 -0.9,1.9l5.6,0z" class="st0" id="sy2mb"/>
     </g>
    </g>
    <g id="svg_7">
     <g id="svg_8">
      <path fill="#2D6862" d="m87.4,28.5c-1.1,0 -2.2,-0.2 -3.2,-0.5c-1.1,-0.3 -2,-0.9 -2.7,-1.5l1.4,-2.4c0.8,0.5 1.5,1 2.3,1.2c0.7,0.3 1.5,0.4 2.1,0.4c0.5,0 0.9,-0.1 1.2,-0.3c0.3,-0.2 0.4,-0.4 0.4,-0.8s-0.2,-0.6 -0.5,-0.8c-0.4,-0.2 -1,-0.4 -1.8,-0.6c-0.7,-0.2 -1.5,-0.4 -2.2,-0.7c-0.6,-0.2 -1.1,-0.5 -1.5,-0.8c-0.4,-0.3 -0.6,-0.6 -0.8,-1c-0.2,-0.4 -0.2,-0.8 -0.2,-1.3c0,-0.7 0.1,-1.2 0.4,-1.8c0.3,-0.5 0.6,-1 1.1,-1.4c0.5,-0.4 1,-0.7 1.6,-0.9c0.7,-0.2 1.3,-0.3 2,-0.3c1,0 1.9,0.1 2.7,0.4c0.8,0.3 1.7,0.7 2.4,1.4l-1.5,2.3c-0.7,-0.5 -1.4,-0.9 -2,-1.1c-0.5,-0.2 -1.1,-0.3 -1.7,-0.3c-0.4,0 -0.8,0.1 -1.1,0.3c-0.3,0.2 -0.4,0.4 -0.4,0.8c0,0.4 0.2,0.6 0.5,0.8c0.3,0.2 0.9,0.4 1.8,0.6c0.9,0.2 1.7,0.5 2.3,0.7c0.6,0.2 1.1,0.5 1.5,0.8s0.7,0.6 0.9,1c0.2,0.4 0.3,0.9 0.3,1.4c0,1.3 -0.5,2.3 -1.4,3c-1,1 -2.3,1.4 -3.9,1.4" class="st0" id="sy2mc"/>
     </g>
    </g>
    <g id="svg_9">
     <g id="svg_10">
      <path fill="#2D6862" d="m103.5,28.5l-3.5,-5.3l-1.4,1.5l0,3.9l-4.1,0l0,-18.9l4.1,0l0,11l4.5,-5.5l4.3,0l-4.8,5.7l5.2,7.6l-4.3,0z" class="st0" id="sy2md"/>
     </g>
    </g>
    <g id="svg_11">
     <g id="svg_12">
      <path fill="#2D6862" d="m111.5,28.5l0,-10.3l-1.7,0l0,-3.1l1.7,0l0,0c0,-0.8 0.1,-1.6 0.3,-2.3c0.2,-0.7 0.5,-1.2 0.9,-1.7c0.4,-0.5 0.9,-0.8 1.5,-1.1c0.6,-0.3 1.2,-0.4 1.9,-0.4c1.1,0 2.2,0.3 3.5,0.8l-0.7,3c-0.3,-0.1 -0.6,-0.2 -0.9,-0.3c-0.3,-0.1 -0.6,-0.1 -0.9,-0.1c-1,0 -1.5,0.6 -1.5,1.9l0,0.1l3.1,0l0,3.1l-3.1,0l0,10.3l-4.1,0l0,0.1z" class="st0" id="sy2me"/>
     </g>
    </g>
    <g id="svg_13">
     <g id="svg_14">
      <path fill="#2D6862" d="m122,30.1c0.3,0.1 0.6,0.2 0.9,0.2c0.3,0.1 0.5,0.1 0.8,0.1c0.5,0 0.8,-0.2 1.1,-0.5c0.3,-0.3 0.6,-0.5 0.8,-1.5l-5.1,-13.3l4.1,0l3,9.6l2.6,-9.6l3.7,0l-5,15.1c-0.3,1 -1,2 -1.9,2.6c-0.9,0.7 -1.9,1 -3.2,1c-0.3,0 -0.7,0 -1,-0.1c-0.4,-0.1 -0.7,-0.2 -1,-0.3l0.2,-3.3z" class="st0" id="sy2mf"/>
     </g>
    </g>
    <g id="svg_15" class="st1">
     <g id="svg_16">
      <path fill="#2D6862" d="m18.8,0.2l-17.7,0c-0.6,0.1 -1.1,0.6 -1.2,1.2c0.6,15 13,27 28.2,27c2.6,0 5.1,-0.3 7.5,-1c1.3,-2.6 2,-5.5 2,-8.4c0.1,-10.3 -8.4,-18.8 -18.8,-18.8" class="st0" id="sy2mg"/>
     </g>
    </g>
    <g id="svg_17" class="st1">
     <g id="svg_18">
      <path fill="#2D6862" d="m35.7,10.7c-2.4,-0.7 -5,-1 -7.5,-1c-15.1,0 -27.5,11.9 -28.2,26.9c0,0.7 0.5,1.2 1.2,1.3l17.7,0c10.4,0 18.8,-8.4 18.8,-18.8c0,-3 -0.7,-5.9 -2,-8.4" class="st0" id="sy2mh"/>
     </g>
    </g>
    <g id="svg_19" class="st1">
     <g id="svg_20">
      <path fill="#2D6862" d="m24.9,23c-10.5,0 -19.7,5.8 -24.5,14.4c0.2,0.3 0.5,0.4 0.9,0.5l17.6,0c8.1,0 15,-5.1 17.7,-12.3c-3.7,-1.7 -7.7,-2.6 -11.7,-2.6" class="st0" id="sy2mi"/>
     </g>
    </g>
    <g id="svg_21" class="st1">
     <g id="svg_22">
      <path fill="#2D6862" d="m18.8,0.2l-17.7,0c-0.3,0 -0.7,0.2 -0.9,0.5c4.8,8.6 14,14.5 24.6,14.5c4.2,0 8.1,-0.9 11.7,-2.5c-2.6,-7.3 -9.5,-12.5 -17.7,-12.5" class="st0" id="sy2mj"/>
     </g>
    </g>
    <g id="svg_23">
     <g id="svg_24">
      <path fill="#2D6862" d="m37.7,18.4l0,-0.4l0,-0.2c0,-0.1 0,-0.2 0,-0.3c0,-0.4 -0.1,-0.7 -0.1,-1.1l0,-0.1c-0.1,-0.5 -0.2,-1 -0.3,-1.5l0,-0.1c0,-0.1 -0.1,-0.3 -0.1,-0.4l0,-0.1c-0.1,-0.3 -0.2,-0.7 -0.3,-1c-0.3,-0.8 -0.6,-1.7 -1,-2.4c-2.4,-0.7 -5,-1 -7.5,-1c-8.4,0 -15.9,3.6 -21,9.4c5.2,5.8 12.7,9.4 21,9.4c2.6,0 5.1,-0.3 7.5,-1c0.1,-0.2 0.2,-0.3 0.2,-0.5l0,0c0.4,-0.8 0.7,-1.6 0.9,-2.5l0,-0.1c0.1,-0.3 0.2,-0.6 0.3,-0.9l0,-0.1c0,-0.2 0.1,-0.3 0.1,-0.5l0,0c0.1,-0.3 0.1,-0.7 0.2,-1l0,-0.1c0,-0.1 0,-0.3 0.1,-0.4l0,-0.2c0,-0.4 0.1,-0.7 0.1,-1.1l0,-0.4l0,-0.2c0,-0.4 0,-0.7 0,-1.1c-0.1,0 -0.1,-0.1 -0.1,-0.1" class="st0" id="sy2mk"/>
     </g>
    </g>
   </g>
   <polyline stroke-linecap="round" id="svg_25" points="46.750009223592144,20.2187475375286 46.750009223592144,20.2187475375286 46.750009223592144,19.718747765271644 47.25000899584916,19.21874799301466 49.250008084877095,14.7187500427018 50.250007629391064,10.21875209238894 51.25000717390503,4.718754597562139 51.25000717390503,1.7187559640202323 51.25000717390503,-0.28124312500770543 51.25000717390503,0.218756647249279 51.25000717390503,2.218755736277217 51.25000717390503,4.718754597562139 49.250008084877095,12.218751181416877 46.750009223592144,15.718749587215768 46.25000945133519,17.718748676243706 45.750009679078175,18.21874844850069 45.750009679078175,18.718748220757675 " opacity="0.5" stroke-width="0" stroke="#000" fill="none"/>
   <polyline stroke-linecap="round" id="svg_26" points="31.750016055882668,20.2187475375286 31.750016055882668,20.2187475375286 32.250015828139624,20.2187475375286 33.25001537265359,20.2187475375286 34.750014689424574,20.2187475375286 35.25001446168153,20.2187475375286 36.2500140061955,20.2187475375286 36.2500140061955,19.718747765271644 36.2500140061955,18.718748220757675 36.2500140061955,17.718748676243706 36.2500140061955,17.21874890398672 " opacity="0.5" stroke-width="0" stroke="#3cbbd1" fill="none"/>
   <polyline stroke-linecap="round" id="svg_27" points="35.75001423393854,16.718749131729737 35.75001423393854,17.718748676243706 35.75001423393854,18.21874844850069 35.75001423393854,20.2187475375286 35.75001423393854,23.218746171070507 35.75001423393854,24.71874548784146 35.75001423393854,25.218745260098444 " opacity="0.5" stroke-width="0" stroke="#3cbbd1" fill="none"/>
  </g>
 </g>
</svg>